<svg width="18" height="18" viewBox="0 0 18 18" fill="none" xmlns="http://www.w3.org/2000/svg">
<path d="M16.6688 0.298844C16.5003 0.108466 16.2721 0.00158691 16.0342 0.00158691C15.7963 0.00158691 15.5681 0.108466 15.3996 0.298844L1.33275 16.2558C1.23983 16.3478 1.16457 16.4604 1.11163 16.5868C1.05869 16.7131 1.02921 16.8504 1.02501 16.9902C1.02082 17.13 1.04199 17.2693 1.08723 17.3994C1.13247 17.5295 1.2008 17.6477 1.28798 17.7466C1.37516 17.8455 1.47934 17.9231 1.59403 17.9744C1.70873 18.0257 1.8315 18.0497 1.95472 18.045C2.07795 18.0402 2.19899 18.0068 2.31035 17.9467C2.4217 17.8866 2.52098 17.8013 2.60203 17.6958L16.6657 1.73704C16.8335 1.54578 16.9277 1.28691 16.9277 1.01704C16.9277 0.747184 16.8335 0.488306 16.6657 0.297044L16.6688 0.298844ZM2.79718 12.5712L5.10092 9.95765C5.03529 9.64382 5.00123 9.32257 4.99938 9.00004C5.01567 7.81448 5.44637 6.6848 6.19676 5.85947C6.94715 5.03414 7.95578 4.58076 9.00079 4.59904C9.25323 4.60108 9.50497 4.6294 9.75284 4.68364L10.8349 3.45604C10.2288 3.33995 9.61545 3.27976 9.00079 3.27604C3.09546 3.28144 0 8.21524 0 9.00004C0.576583 10.4952 1.55581 11.7448 2.79718 12.5694V12.5712ZM15.206 5.43064L12.8991 8.04425C12.9639 8.35697 12.9975 8.67699 12.999 8.99825C12.9823 10.183 12.5516 11.3118 11.8016 12.1364C11.0515 12.961 10.0435 13.4139 8.99921 13.3956C8.74895 13.3936 8.49936 13.3659 8.2535 13.3128L7.16985 14.5404C7.77437 14.6563 8.38614 14.7165 8.99921 14.7204C14.903 14.7204 18 9.78485 18 9.00365C17.4256 7.50705 16.4473 6.25595 15.206 5.43064Z" fill="#3A3A3A"/>
</svg>
