<svg viewBox="0 3.276 18 18" width="18" height="18" fill="none" xmlns="http://www.w3.org/2000/svg">
  <path style="fill: rgb(58, 58, 58);" d="M 4.69 13.757 C 3.551 13.238 2.702 12.507 2.702 12.507 L 2.703 12.506 C 1.507 11.682 0.562 10.457 0 9 C 0 8.215 3.095 3.281 9.001 3.276 C 9.615 3.28 10.229 3.34 10.835 3.456 L 10.83 3.462 C 11.172 3.551 12.43 3.889 13.265 4.244 C 14.082 4.592 15.054 5.316 15.209 5.433 C 16.448 6.258 17.426 7.508 18 9.004 C 18 9.785 14.903 14.72 8.999 14.72 C 8.386 14.717 7.774 14.656 7.17 14.54 L 7.178 14.531 C 6.958 14.489 5.753 14.241 4.69 13.757 Z M 9.008 4.584 C 6.722 4.584 4.869 6.569 4.869 9.017 C 4.869 11.465 6.722 13.45 9.008 13.45 C 11.294 13.45 13.147 11.465 13.147 9.017 C 13.147 6.569 11.294 4.584 9.008 4.584 Z M 11.455 8.967 C 11.455 10.367 10.395 11.502 9.088 11.502 C 7.781 11.502 6.721 10.367 6.721 8.967 C 6.721 7.567 7.781 6.432 9.088 6.432 C 10.395 6.432 11.455 7.567 11.455 8.967 Z"></path>
</svg>