<svg width="47" height="52" viewBox="0 0 47 52" fill="none" xmlns="http://www.w3.org/2000/svg">
<path d="M22.8141 25.4573L4.36946 14.3301C3.25722 13.6576 3.25722 12.0395 4.36946 11.3669L22.8141 0.246396C23.357 -0.0798941 24.0389 -0.0798941 24.5818 0.246396L43.0264 11.3669C44.1386 12.0395 44.1386 13.6576 43.0264 14.3301L24.5818 25.4506C24.0389 25.7769 23.357 25.7769 22.8141 25.4506V25.4573Z" fill="white"/>
<path d="M21.5364 45.321L17.7031 47.6783C17.2132 47.978 16.5975 47.978 16.1076 47.6783L0.741493 38.3158C0.28468 38.0361 0 37.5367 0 36.9973V32.3627C0 31.1574 1.30423 30.4182 2.33041 31.0375L21.5298 42.6841C22.5162 43.2834 22.5228 44.7217 21.5364 45.3277V45.321Z" fill="white"/>
<path d="M21.5364 32.1496L17.7031 34.5069C17.2132 34.8065 16.5975 34.8065 16.1076 34.5069L0.741493 25.1443C0.28468 24.8647 0 24.3652 0 23.8259V19.1912C0 17.9859 1.30423 17.2468 2.33041 17.8661L21.5298 29.5126C22.5162 30.1119 22.5228 31.5503 21.5364 32.1563V32.1496Z" fill="white"/>
<path d="M44.6021 18.3056L40.365 20.8626C38.8622 21.7949 38.8622 22.5207 38.8622 24.0589V40.5C38.8622 41.7052 40.2194 42.4044 41.1926 41.7052L45.6283 39.0616C46.8928 38.2759 46.8928 38.0095 46.8928 36.1583V19.5242C46.8928 18.3322 45.5687 17.633 44.5889 18.2989L44.6021 18.3056Z" fill="white"/>
<path d="M28.9314 27.7147C28.3687 28.0543 28.3687 28.88 28.9314 29.213C30.09 29.9055 30.1033 31.5836 28.9645 32.3027L23.0525 36.0118C22.0594 36.6377 22.0726 38.096 23.0789 38.702L28.8321 42.1713C30.1959 42.9971 30.1959 44.9881 28.8255 45.8071L22.1454 49.7959C21.5761 50.1355 21.5695 50.9679 22.1454 51.3141L22.9333 51.7869C23.41 52.0732 24.0058 52.0732 24.4891 51.7869L32.7382 46.826C33.9233 46.1135 34.6515 44.8283 34.6515 43.4366V40.6464V31.75V26.2897C34.6515 25.4107 33.6982 24.8713 32.9501 25.3175L28.9447 27.7213L28.9314 27.7147Z" fill="white"/>
</svg>
