<svg width="22" height="21" viewBox="0 0 22 21" fill="none" xmlns="http://www.w3.org/2000/svg">
<path d="M14.25 1.81539e-07C13.196 -0.000136201 12.1566 0.246599 11.2151 0.720437C10.2736 1.19428 9.45614 1.88204 8.82827 2.72864C8.20039 3.57524 7.77953 4.55712 7.59941 5.59563C7.41928 6.63415 7.4849 7.70041 7.791 8.709L0 16.5V21H4.5L12.291 13.209C13.2194 13.4908 14.1977 13.5692 15.1591 13.4387C16.1206 13.3083 17.0426 12.9721 17.8624 12.453C18.6821 11.934 19.3804 11.2444 19.9095 10.4311C20.4386 9.6178 20.7862 8.70001 20.9285 7.74025C21.0709 6.78049 21.0046 5.80132 20.7343 4.86948C20.464 3.93764 19.996 3.07502 19.3622 2.34042C18.7283 1.60582 17.9436 1.01649 17.0614 0.612608C16.1792 0.208724 15.2203 -0.00022483 14.25 1.81539e-07ZM14.25 12C13.7336 11.9996 13.2201 11.9231 12.726 11.773L11.866 11.512L11.231 12.147L8.845 14.533L7.81 13.5L6.75 14.56L7.784 15.594L6.594 16.784L5.56 15.75L4.5 16.81L5.534 17.844L3.879 19.5H1.5V17.121L8.851 9.77L9.487 9.135L9.226 8.275C8.90522 7.2183 8.92583 6.08735 9.28488 5.04303C9.64393 3.99872 10.3232 3.09421 11.2259 2.45819C12.1287 1.82216 13.209 1.487 14.3133 1.50039C15.4175 1.51377 16.4894 1.87502 17.3765 2.53274C18.2636 3.19046 18.9207 4.11116 19.2543 5.16387C19.5879 6.21659 19.5811 7.3477 19.2348 8.39632C18.8885 9.44493 18.2204 10.3577 17.3254 11.0046C16.4305 11.6516 15.3543 11.9999 14.25 12Z" fill="black"/>
<path d="M15 7.5C15.8284 7.5 16.5 6.82843 16.5 6C16.5 5.17157 15.8284 4.5 15 4.5C14.1716 4.5 13.5 5.17157 13.5 6C13.5 6.82843 14.1716 7.5 15 7.5Z" fill="black"/>
</svg>
